<?xml version="1.0" encoding="utf-8"?>
<!-- Generator: Adobe Illustrator 26.5.0, SVG Export Plug-In . SVG Version: 6.00 Build 0)  -->
<svg version="1.1" id="Livello_1" xmlns="http://www.w3.org/2000/svg" xmlns:xlink="http://www.w3.org/1999/xlink" x="0px" y="0px"
	 viewBox="0 0 720 720" style="enable-background:new 0 0 720 720;" xml:space="preserve">
<style type="text/css">
	.st0{fill:#A1A4A8;}
	.st1{fill:#0085D1;}
</style>
<path id="Tracciato_129" class="st0" d="M355.9,618.8c-6.5-104.3-7.3-217.5-7.3-217.5L189.4,548.5c-39.6,37.5-41.3,100-3.8,139.5
	c37.5,39.6,100,41.3,139.5,3.8C345.1,672.9,356.3,646.4,355.9,618.8L355.9,618.8z"/>
<path id="Tracciato_130" class="st0" d="M368.8,618.8c6.5-104.3,7.3-217.5,7.3-217.5l160,147.2c38,38.4,37.7,100.4-0.7,138.4
	c-38.4,38-100.4,37.7-138.4-0.7C379.3,668.2,369.2,644.1,368.8,618.8L368.8,618.8z"/>
<path id="Tracciato_131" class="st0" d="M613.8,357.7c-104.3-6.5-217.5-7.3-217.5-7.3l147.2-160c37.9-39.2,100.4-40.2,139.6-2.2
	c39.2,37.9,40.2,100.4,2.2,139.6C666.6,347,640.7,357.8,613.8,357.7L613.8,357.7z"/>
<path id="Tracciato_132" class="st0" d="M111.7,357.7c104.3-6.5,217.5-7.3,217.5-7.3l-147.2-160c-38.4-38-100.4-37.7-138.4,0.7
	S6,291.4,44.4,329.4C62.4,347.2,86.5,357.4,111.7,357.7L111.7,357.7z"/>
<path id="Tracciato_133" class="st0" d="M111.7,370.6c104.3,6.5,217.5,7.3,217.5,7.3l-147.2,160c-38,38.5-99.9,38.9-138.4,0.9
	c-38.5-38-38.9-99.9-0.9-138.4c18.2-18.5,43-28.9,69-29.1L111.7,370.6z"/>
<path id="Tracciato_134" class="st0" d="M613.8,370.6c-104.3,6.5-217.5,7.3-217.5,7.3l147.2,160c38,38.5,99.9,38.9,138.4,0.9
	c38.5-38,38.9-99.9,0.9-138.4c-18.2-18.5-43-28.9-69-29.1L613.8,370.6z"/>
<path id="Tracciato_135" class="st1" d="M536.2,79.5c2.9,9.4,4.5,19.2,4.8,29.1L343.8,331l-8.9-9.7c10-12,17.6-25.6,22.6-40.4
	L536.2,79.5z"/>
<path id="Tracciato_136" class="st1" d="M399.6,5.1c-13.9,4.2-26.8,11-38,20.2L215.2,190.3l10.5,11.3L399.6,5.1z"/>
<path id="Tracciato_137" class="st1" d="M346.2,15.7l-15.4-7.3L194.2,162.8c2.6,5.1,5.6,9.9,8.9,14.6L346.2,15.7z"/>
<path id="Tracciato_138" class="st1" d="M313,2.7l-20.9-1.6L182.9,124.8c0.7,6.9,2.1,13.6,4,20.2L313,2.7z"/>
<path id="Tracciato_139" class="st1" d="M268.6,3.5c-47.2,10.1-82.3,49.8-86.5,97.8L268.6,3.5z"/>
<path id="Tracciato_140" class="st1" d="M539.4,126.4c-2.8,21.9-12.1,42.5-26.7,59L361.6,351.2l-4.8-5.7c8-9.9,14.3-21.1,18.6-33.2
	L539.4,126.4z"/>
<path id="Tracciato_141" class="st1" d="M518.4,44.8c5.6,7.5,10.2,15.6,13.7,24.3l-211,237.7l-9.7-10.5
	c19.9-19.7,35.4-43.4,45.3-69.5L518.4,44.8z"/>
<path id="Tracciato_142" class="st1" d="M491.7,19.7c7.4,5.1,14.2,11.1,20.2,17.8L296.8,280.1l-10.5-11.3
	c26.6-23.5,47.3-52.8,60.6-85.7L491.7,19.7z"/>
<path id="Tracciato_143" class="st1" d="M459.4,5.1c8.8,2.4,17.2,6,25.1,10.5l-211,238.6l-9.7-11.3c32.1-28.7,58-63.6,76-102.7
	L459.4,5.1z"/>
<path id="Tracciato_144" class="st1" d="M249.2,228.3l-9.7-10.5c95.4-98.7,95.4-124.5,95.4-124.5l80-90.6h14.5L448,4.3L249.2,228.3z
	"/>
</svg>
